<?xml version="1.0" standalone="no"?>
<!DOCTYPE svg PUBLIC "-//W3C//DTD SVG 20010904//EN"
 "http://www.w3.org/TR/2001/REC-SVG-20010904/DTD/svg10.dtd">
<svg version="1.0" xmlns="http://www.w3.org/2000/svg"
 width="300.000000pt" height="300.000000pt" viewBox="0 0 300.000000 300.000000"
 preserveAspectRatio="xMidYMid meet">
<metadata>
Created by potrace 1.14, written by Peter Selinger 2001-2017
</metadata>
<g transform="translate(0.000000,300.000000) scale(0.100000,-0.100000)"
fill="#000000" stroke="none">
<path d="M299 2977 c-144 -49 -241 -151 -283 -298 -15 -50 -16 -173 -14 -1200
l3 -1144 23 -57 c44 -110 140 -206 249 -250 l58 -23 1165 0 1165 0 58 23 c109
44 205 140 249 250 l23 57 0 1165 0 1165 -23 57 c-44 110 -140 206 -249 250
l-58 23 -1150 2 -1150 3 -66 -23z m784 -908 c280 -82 515 -153 523 -156 12 -4
14 11 14 90 0 146 -8 141 237 145 190 3 200 2 226 -18 l27 -21 0 -174 0 -174
53 -19 c28 -10 111 -39 182 -63 75 -25 140 -53 153 -66 l22 -22 0 -406 0 -405
-979 0 c-688 0 -987 3 -1010 11 -54 19 -68 75 -29 116 l21 23 924 0 923 0 0
294 0 293 -182 62 c-101 35 -192 71 -203 82 -18 18 -20 32 -19 179 l1 160 -98
0 -99 0 0 -97 c0 -59 -5 -108 -13 -123 -28 -55 -22 -56 -653 131 -352 104
-596 181 -606 192 -41 39 -8 117 50 117 15 0 256 -68 535 -151z"/>
</g>
</svg>
