<svg xmlns="http://www.w3.org/2000/svg" xml:space="preserve" id="Layer_1" x="0" y="0" viewBox="0 0 700 700"><path d="M699.1 356.9c-2.8 15.5-12.4 26.8-23.2 37.5-79.5 79.4-158.9 158.9-238.3 238.3-16.7 16.6-38.2 21.4-57.3 12.8-30.2-13.6-39-51.7-17.9-77.3 2.6-3.2 5.5-6.1 8.3-9 36-36 72-72 108.1-108 9.5-9.5 18.5-19.6 28.7-28.2 10.1-8.5 21.6-15.4 32.6-23.2h-7.2c-158.7 0-317.4-.1-476.2.1-15.9 0-30.4-3.1-41.6-15-14-14.8-18.7-32.4-11.3-51.6 7.7-20 23.1-30.9 44.4-33.2 4.1-.4 8.2-.3 12.3-.3h479.9c-10.9-7.5-21.9-14.8-32.6-22.5-4-2.9-7.3-6.8-10.9-10.3-42.7-42.8-85.3-85.8-128.1-128.5-15.1-15-21.6-32.6-15.8-53.3 8.9-32.4 49.5-45.2 76.1-24.4 3.6 2.8 6.9 5.9 10.1 9.1 78.8 78.8 157.5 157.6 236.5 236.3 10.8 10.8 20.3 22 23.6 37.3-.2 4.3-.2 8.9-.2 13.4" style="fill:#fff"/></svg>