<svg xmlns="http://www.w3.org/2000/svg" xml:space="preserve" id="Layer_1" x="0" y="0" viewBox="0 0 700 700"><path d="M1 306c5.8-12.4 15.8-16.3 29.2-16.3 212.7.2 425.3.2 637.9.2 4.6 0 9.4.1 13.6 1.5 10 3.4 14.9 10.6 14.1 21.3-.8 10-6.6 17.2-16.3 17.7-10.3.6-12.6 5.9-14.8 14.4-8.6 33.6-18.2 66.9-26.7 100.4-12.1 48.2-39.4 83.9-84.3 105.8-1.6.8-3.1 1.9-5.5 3.6 5.8 7.4 11.7 14.5 17 21.8 7.7 10.8 6.5 22.4-2.9 29.5-9.2 7-21 5.4-29.7-4.1-.3-.3-.7-.7-.9-1.1-16.1-32.4-43-36.6-76.6-35.7-84.2 2.3-168.6.5-252.9.8-4.2 0-9.5 2.9-12.3 6.1-8.8 9.6-16.3 20.2-24.9 29.9-8.7 10-20.4 11.2-29.5 3.8-9-7.2-10.1-19.4-2.5-29.7 2.8-3.8 5.8-7.2 8.7-10.9 2.5-3.3 5-6.5 7.3-9.6-13.4-9.2-27.2-17-39.1-26.9-26.3-21.6-41.7-50.2-50.1-82.9-9-34.4-18.4-68.8-27.2-103.2-1.8-7.2-4.7-10.1-12.2-12.1-7.1-1.9-13-8.8-19.5-13.3.1-3.6.1-7.2.1-11M136.8 229.7c6.1-5 9.4-8.3 13.1-10.6 12.1-7.4 27.5-1.1 30.9 12.4 2.9 11.4-2.5 18.6-14.5 18.6-32.4.1-64.9.3-97.3-.2-5.6-.1-14.9-2.4-15.9-5.8-1.8-6.2-1.1-15.6 2.6-20.4 3.8-4.7 12.9-7.4 19.3-6.7 6.6.7 12.5 6.6 19.8 10.8.3-3 .9-6.3 1-9.7.1-23.6-.1-47.3.1-70.9.4-40.4 35.5-74.5 76.6-74.3 40.5.2 75.2 33.4 76.4 73.2.4 14.4-6.6 23.7-18.6 24.8-11.7 1-21.8-7.2-22.5-21.3-1.1-24.1-22.2-36-37.3-35-20.4 1.2-33.5 16.9-33.6 40-.2 24.3-.1 48.2-.1 75.1"/></svg>