<?xml version="1.0" encoding="utf-8"?><!-- Generator: Adobe Illustrator 26.2.1, SVG Export Plug-In . SVG Version: 6.00 Build 0)  --><svg xmlns="http://www.w3.org/2000/svg" xmlns:xlink="http://www.w3.org/1999/xlink" version="1.1" id="Layer_1" x="0px" y="0px" viewBox="0 0 700 700" style="enable-background: new 0 0 700 700" xml:space="preserve">
<g>
	<path d="M1,306c5.8-12.4,15.8-16.3,29.2-16.3c212.7,0.2,425.3,0.2,637.9,0.2c4.6,0,9.4,0.1,13.6,1.5c10,3.4,14.9,10.6,14.1,21.3
		c-0.8,10-6.6,17.2-16.3,17.7c-10.3,0.6-12.6,5.9-14.8,14.4c-8.6,33.6-18.2,66.9-26.7,100.4c-12.1,48.2-39.4,83.9-84.3,105.8
		c-1.6,0.8-3.1,1.9-5.5,3.6c5.8,7.4,11.7,14.5,17,21.8c7.7,10.8,6.5,22.4-2.9,29.5c-9.2,7-21,5.4-29.7-4.1c-0.3-0.3-0.7-0.7-0.9-1.1
		c-16.1-32.4-43-36.6-76.6-35.7c-84.2,2.3-168.6,0.5-252.9,0.8c-4.2,0-9.5,2.9-12.3,6.1c-8.8,9.6-16.3,20.2-24.9,29.9
		c-8.7,10-20.4,11.2-29.5,3.8c-9-7.2-10.1-19.4-2.5-29.7c2.8-3.8,5.8-7.2,8.7-10.9c2.5-3.3,5-6.5,7.3-9.6
		c-13.4-9.2-27.2-17-39.1-26.9c-26.3-21.6-41.7-50.2-50.1-82.9c-9-34.4-18.4-68.8-27.2-103.2c-1.8-7.2-4.7-10.1-12.2-12.1
		c-7.1-1.9-13-8.8-19.5-13.3C1,313.4,1,309.8,1,306z"/>
	<path d="M136.8,229.7c6.1-5,9.4-8.3,13.1-10.6c12.1-7.4,27.5-1.1,30.9,12.4c2.9,11.4-2.5,18.6-14.5,18.6
		c-32.4,0.1-64.9,0.3-97.3-0.2c-5.6-0.1-14.9-2.4-15.9-5.8c-1.8-6.2-1.1-15.6,2.6-20.4c3.8-4.7,12.9-7.4,19.3-6.7
		c6.6,0.7,12.5,6.6,19.8,10.8c0.3-3,0.9-6.3,1-9.7c0.1-23.6-0.1-47.3,0.1-70.9c0.4-40.4,35.5-74.5,76.6-74.3
		c40.5,0.2,75.2,33.4,76.4,73.2c0.4,14.4-6.6,23.7-18.6,24.8c-11.7,1-21.8-7.2-22.5-21.3c-1.1-24.1-22.2-36-37.3-35
		c-20.4,1.2-33.5,16.9-33.6,40C136.7,178.9,136.8,202.8,136.8,229.7z"/>
</g>
</svg>