<svg xmlns="http://www.w3.org/2000/svg" xml:space="preserve" id="Layer_1" x="0" y="0" viewBox="0 0 700 700"><path d="M348.6 558.3H50.7c-24.9 0-32.4-7.4-32.4-32.5-.1-47.9-.1-95.7 0-143.5.1-24.3 7.7-32.1 31.7-32.1 200-.1 399.9-.1 599.8 0 24.3 0 31.3 7.4 31.3 32.1v143.5c0 25.9-6.7 32.6-33.2 32.6-99.8 0-199.5-.1-299.3-.1M85.6 230.4c-.3-4.5-.8-7.9-.8-11.4-.1-35-.2-70 0-105 .3-31.6 19.2-50.5 50.5-50.5q214.8-.15 429.6 0c30 0 49.5 18.6 49.9 48.5.5 38.9.1 77.9.1 117.7-14.9 0-29 .4-43-.4-2.4-.1-6.1-5.5-6.4-8.7-.9-9.3-.1-18.6-.4-27.9-.8-26.8-19-44.7-45.7-44.7q-53.85-.15-107.7 0c-27.1.1-45.6 18-46.8 45.5-.5 11.4-.1 22.9-.1 35.4h-30c0-10.5.1-20.6 0-30.6-.3-32.4-18.1-50.2-50.1-50.2C250.1 148.1 215.5 148 181 148.1c-27.7.1-45.6 17.7-46.6 45.3-.4 11.8 2.7 27.3-3.5 34.1-5.4 5.9-21.6 1.9-33 2.4-3.4-.1-6.9.2-12.3.5M645.6 311.2H54.5c1.8-25.1 21.9-42.9 48.5-42.9 64.7-.1 129.5 0 194.2 0h299.3c26.8 0 46 16.6 49.1 42.9"/><path d="M295.8 228.9H173.3c0-11.8-.8-22.8.5-33.7.4-3.3 6-8.6 9.4-8.7 34.1-.7 68.2-.3 102.4-.5 7.3 0 10.5 2.6 10.3 10-.3 10.6-.1 21.3-.1 32.9M81.4 598.6c2 20.9-4.2 31.2-18.5 31.4-14.4.2-20.7-9.6-19.5-31.4ZM656.3 598.6c2 21-4.2 31.2-18.5 31.4s-20.8-9.7-19.5-31.4ZM526.6 229H404.1c0-11.8-.8-22.8.5-33.7.4-3.3 6-8.6 9.4-8.7 34.1-.7 68.2-.3 102.4-.5 7.3 0 10.5 2.6 10.3 10-.3 10.6-.1 21.3-.1 32.9"/></svg>