<svg xmlns="http://www.w3.org/2000/svg" xml:space="preserve" id="Layer_1" x="0" y="0" viewBox="0 0 700 700"><path d="M524.5 700c-12.7-2.1-25.6-3.6-38.2-6.4-48.7-10.5-93.2-31.6-136.3-55.7-66.8-37.4-126.4-84.2-178.3-140.4-67.2-72.4-121.9-152.7-154-247.1-10.2-30.1-16.7-61-15.9-93 .8-30.1 10.6-56.7 31.7-78.4C52 60 70.6 41.3 89.4 22.8 101.5 11 116.2 3.5 132.8 0h17.7c22.5 4.4 38.7 18.8 54.1 34.6 26.8 27.6 54.6 54.2 80.7 82.4 24.7 26.7 24.6 62.6.3 89.7-16.9 18.8-35.2 36.2-53.1 54-3.6 3.6-4.5 6.1-2.2 10.9 18.1 37.9 44.3 69.9 72.6 100.2 28.8 30.9 60.5 58.6 96.1 81.3 9.4 6 19.5 10.7 29.1 16.4 3.8 2.3 6.1 1.8 9.2-1.3 14.9-15.3 30.1-30.4 45.3-45.5 8.9-8.8 18.5-16.9 30.5-21.3 27-9.9 50.8-3.7 70.9 15.8 30.8 30 61.2 60.4 91.3 91.2 29 29.7 31 66.3 3.9 97.4-20.7 23.8-43.4 46-66.3 67.7-15.9 15.1-36.1 22.5-57.8 25.1-1.5.2-3 .8-4.5 1.3-8.8.1-17.5.1-26.1.1M37.2 159c.1 36.7 9 66.8 20.1 96.3 31.3 83.4 81.4 154.8 141.5 219.5C257 537.7 325 587.8 402 625.6c38.1 18.7 77.4 33.9 120.1 38.3 25.8 2.7 50.5 0 70.1-18.7 20.7-19.8 40.6-40.5 60-61.6 14.2-15.4 14-32.7-.5-47.7-30.8-31.7-62-62.9-93.6-93.8-12.5-12.3-28.8-12.1-42.7-1.1-3.2 2.5-6.1 5.4-9 8.3-16.8 16.7-33.4 33.5-50.2 50.2-11.3 11.2-23.2 13-37.3 5.8-10.1-5.2-20.3-10.3-30-16.2-44.5-27-83.3-60.9-118.2-99.4-29.9-33-57.1-67.9-75.3-109-7.7-17.5-5.9-27.9 7.7-41.1 16.5-16 33-32 49.2-48.4 20.7-20.9 20.7-37.1-.1-58.1-27.2-27.5-54.6-54.8-82-82.2-2.4-2.4-4.9-4.7-7.6-6.9-12.2-10.2-25.6-11.3-39.1-2.9-4.4 2.7-8.4 6.2-12.1 9.9C95.5 66.7 80 82.8 64 98.3c-18.5 18-27.5 39.7-26.8 60.7"/></svg>