<svg xmlns="http://www.w3.org/2000/svg" xml:space="preserve" id="Layer_1" x="0" y="0" viewBox="0 0 700 700"><path d="M176.7 518.8c-4.9-.4-8-.8-11.2-.8H43.1v27.1c-.1 17.8-7.5 27.2-21 27-13.4-.1-20.3-9.4-20.3-27.6v-33.6c0-30.5 3.8-34.2 34.8-34.2h138.8c.5-4.7.9-7.9 1.3-11.1 2-15.1 8.6-21.4 23.8-21.6 19.6-.3 39.3-.2 58.9-.4.8 0 1.6-.7 3.3-1.4v-85.4c-16-4.4-42.7 5-41.5-24 1.1-26.4 25.8-15.7 40.7-19.7 3-18.2 4.7-36.4 9-53.8 24.8-100.2 116-166.9 221.8-162.9 98.5 3.7 185.2 80.4 201.9 178.9 1.8 11 3 22.2 3 33.4.2 78.5.1 156.9.1 235.4 0 22.4-5.8 28.3-28 28.3H207c-24.5 0-30.3-6-30.4-30.7.1-7.1.1-14.1.1-22.9m432.1-205c.4-71.5-55.8-129.2-126.4-129.6-72.3-.4-130.1 55.7-130.7 126.9-.6 71.1 57.1 129.7 128 130 71 .3 128.7-56.7 129.1-127.3"/><path d="M480.9 224.3c50.1.2 88.3 38.9 87.9 89.3-.4 48.9-39.7 87.8-88.8 87.6-49.2-.2-88.7-40.4-88.2-89.8.5-49.1 39.7-87.3 89.1-87.1"/></svg>