<?xml version="1.0" encoding="utf-8"?>
<!-- Generator: Adobe Illustrator 26.2.1, SVG Export Plug-In . SVG Version: 6.00 Build 0)  -->
<svg version="1.1" id="Layer_1" xmlns="http://www.w3.org/2000/svg" xmlns:xlink="http://www.w3.org/1999/xlink" x="0px" y="0px"
	 viewBox="0 0 700 700" style="enable-background:new 0 0 700 700;" xml:space="preserve">
<style type="text/css">
	.st0{fill:#F6F7F7;}
</style>
<g>
	<path class="st0" d="M342.7,697c-15.4-2.8-26.6-12.3-37.3-23c-78.7-79-157.6-157.8-236.5-236.6c-16.5-16.5-21.2-37.9-12.7-56.9
		c13.5-29.9,51.3-38.7,76.8-17.8c3.1,2.6,6.1,5.4,8.9,8.3c35.8,35.7,71.5,71.5,107.3,107.3c9.4,9.4,19.5,18.3,28,28.5
		c8.4,10.1,15.3,21.4,23,32.4c0-2,0-4.6,0-7.1c0-157.6,0.1-315.1-0.1-472.7c0-15.8,3.1-30.1,14.9-41.3C329.8,4,347.2-0.6,366.2,6.7
		c19.8,7.6,30.7,22.9,32.9,44.1c0.4,4,0.3,8.1,0.3,12.2c0,156.4,0,312.9,0,469.3c0,2.6,0,5.1,0,7c7.4-10.8,14.7-21.8,22.4-32.4
		c2.9-4,6.7-7.3,10.2-10.8c42.5-42.4,85.2-84.7,127.6-127.2c14.9-15,32.4-21.4,52.9-15.7c32.1,8.9,44.9,49.2,24.2,75.5
		c-2.8,3.5-5.9,6.9-9,10.1c-78.2,78.2-156.5,156.4-234.5,234.7c-10.7,10.7-21.8,20.1-37,23.4C351.7,697,347.2,697,342.7,697z"/>
</g>
</svg>
