<?xml version="1.0" encoding="utf-8"?>
<!-- Generator: Adobe Illustrator 26.2.1, SVG Export Plug-In . SVG Version: 6.00 Build 0)  -->
<svg version="1.1" id="Layer_1" xmlns="http://www.w3.org/2000/svg" xmlns:xlink="http://www.w3.org/1999/xlink" x="0px" y="0px"
	 viewBox="0 0 700 700" style="enable-background:new 0 0 700 700;" xml:space="preserve">
<style type="text/css">
	.st0{fill:#CB102B;}
</style>
<g>
	<path class="st0" d="M699.1,356.9c-2.8,15.5-12.4,26.8-23.2,37.5C596.4,473.8,517,553.3,437.6,632.7
		c-16.7,16.6-38.2,21.4-57.3,12.8c-30.2-13.6-39-51.7-17.9-77.3c2.6-3.2,5.5-6.1,8.3-9c36-36,72-72,108.1-108
		c9.5-9.5,18.5-19.6,28.7-28.2c10.1-8.5,21.6-15.4,32.6-23.2c-2,0-4.6,0-7.2,0c-158.7,0-317.4-0.1-476.2,0.1
		c-15.9,0-30.4-3.1-41.6-15c-14-14.8-18.7-32.4-11.3-51.6c7.7-20,23.1-30.9,44.4-33.2c4.1-0.4,8.2-0.3,12.3-0.3
		c157.6,0,315.2,0,472.8,0c2.6,0,5.2,0,7.1,0c-10.9-7.5-21.9-14.8-32.6-22.5c-4-2.9-7.3-6.8-10.9-10.3
		c-42.7-42.8-85.3-85.8-128.1-128.5c-15.1-15-21.6-32.6-15.8-53.3c8.9-32.4,49.5-45.2,76.1-24.4c3.6,2.8,6.9,5.9,10.1,9.1
		c78.8,78.8,157.5,157.6,236.5,236.3c10.8,10.8,20.3,22,23.6,37.3C699.1,347.8,699.1,352.4,699.1,356.9z"/>
</g>
</svg>
