<?xml version="1.0" encoding="utf-8"?>
<!-- Generator: Adobe Illustrator 26.2.1, SVG Export Plug-In . SVG Version: 6.00 Build 0)  -->
<svg version="1.1" id="Layer_1" xmlns="http://www.w3.org/2000/svg" xmlns:xlink="http://www.w3.org/1999/xlink" x="0px" y="0px"
	 viewBox="0 0 700 700" style="enable-background:new 0 0 700 700;" xml:space="preserve">
<g>
	<path d="M348.6,558.3c-99.3,0-198.6,0-297.9,0c-24.9,0-32.4-7.4-32.4-32.5c-0.1-47.9-0.1-95.7,0-143.5C18.4,358,26,350.2,50,350.2
		c200-0.1,399.9-0.1,599.8,0c24.3,0,31.3,7.4,31.3,32.1c0,47.9,0,95.7,0,143.5c0,25.9-6.7,32.6-33.2,32.6
		C548.1,558.4,448.4,558.3,348.6,558.3z"/>
	<path d="M85.6,230.4c-0.3-4.5-0.8-7.9-0.8-11.4c-0.1-35-0.2-70,0-105c0.3-31.6,19.2-50.5,50.5-50.5c143.2-0.1,286.4-0.1,429.6,0
		c30,0,49.5,18.6,49.9,48.5c0.5,38.9,0.1,77.9,0.1,117.7c-14.9,0-29,0.4-43-0.4c-2.4-0.1-6.1-5.5-6.4-8.7
		c-0.9-9.3-0.1-18.6-0.4-27.9c-0.8-26.8-19-44.7-45.7-44.7c-35.9-0.1-71.8-0.1-107.7,0c-27.1,0.1-45.6,18-46.8,45.5
		c-0.5,11.4-0.1,22.9-0.1,35.4c-10.2,0-19.2,0-30,0c0-10.5,0.1-20.6,0-30.6c-0.3-32.4-18.1-50.2-50.1-50.2c-34.6,0-69.2-0.1-103.7,0
		c-27.7,0.1-45.6,17.7-46.6,45.3c-0.4,11.8,2.7,27.3-3.5,34.1c-5.4,5.9-21.6,1.9-33,2.4C94.5,229.8,91,230.1,85.6,230.4z"/>
	<path d="M645.6,311.2c-197.1,0-394.1,0-591.1,0c1.8-25.1,21.9-42.9,48.5-42.9c64.7-0.1,129.5,0,194.2,0c99.7,0,199.6,0,299.3,0
		C623.3,268.3,642.5,284.9,645.6,311.2z"/>
	<path d="M295.8,228.9c-41.9,0-81.7,0-122.5,0c0-11.8-0.8-22.8,0.5-33.7c0.4-3.3,6-8.6,9.4-8.7c34.1-0.7,68.2-0.3,102.4-0.5
		c7.3,0,10.5,2.6,10.3,10C295.6,206.6,295.8,217.3,295.8,228.9z"/>
	<path d="M81.4,598.6c2,20.9-4.2,31.2-18.5,31.4c-14.4,0.2-20.7-9.6-19.5-31.4C55.7,598.6,68.1,598.6,81.4,598.6z"/>
	<path d="M656.3,598.6c2,21-4.2,31.2-18.5,31.4s-20.8-9.7-19.5-31.4C630.5,598.6,643,598.6,656.3,598.6z"/>
	<path d="M526.6,229c-41.9,0-81.7,0-122.5,0c0-11.8-0.8-22.8,0.5-33.7c0.4-3.3,6-8.6,9.4-8.7c34.1-0.7,68.2-0.3,102.4-0.5
		c7.3,0,10.5,2.6,10.3,10C526.4,206.7,526.6,217.4,526.6,229z"/>
</g>
</svg>
