<?xml version="1.0" encoding="utf-8"?>
<!-- Generator: Adobe Illustrator 26.2.1, SVG Export Plug-In . SVG Version: 6.00 Build 0)  -->
<svg version="1.1" id="Layer_1" xmlns="http://www.w3.org/2000/svg" xmlns:xlink="http://www.w3.org/1999/xlink" x="0px" y="0px"
	 viewBox="0 0 700 700" style="enable-background:new 0 0 700 700;" xml:space="preserve">
<g>
	<path d="M458.5,38.6c10.5,0.8,21,1.6,31.5,2.5c7.2,0.6,14.5,1.3,21.9,1.9c0,33.1,0,65.7,0,99.1c-3,0-5.8,0-8.5,0
		c-20.9,0.3-41.9,0-62.8,1.1c-26,1.4-40.4,15.1-41.5,41c-1.2,27.1-0.3,54.3-0.3,82.4c36.2,0,72.4,0,109.4,0
		c-4.8,37.5-9.6,73.9-14.3,111c-31.9,0-63.3,0-95.3,0c0,94.9,0,189.1,0,283.8c-38.4,0-76.3,0-114.7,0c0-94.4,0-188.6,0-283.6
		c-32.1,0-63.7,0-95.7,0c0-37.2,0-73.6,0-110.8c31.5,0,63.1,0,95.6,0c0-3.1,0-5.5,0-7.8c0.1-29-0.6-58,0.6-87
		c1.4-34.9,11.8-66.9,36.4-93c18.8-19.8,42.2-31.2,68.7-36.7c7.1-1.5,14.3-2.5,21.5-3.8C426.8,38.6,442.6,38.6,458.5,38.6z"/>
</g>
</svg>
