<?xml version="1.0" encoding="utf-8"?>
<!-- Generator: Adobe Illustrator 26.2.1, SVG Export Plug-In . SVG Version: 6.00 Build 0)  -->
<svg version="1.1" id="Layer_1" xmlns="http://www.w3.org/2000/svg" xmlns:xlink="http://www.w3.org/1999/xlink" x="0px" y="0px"
	 viewBox="0 0 700 700" style="enable-background:new 0 0 700 700;" xml:space="preserve">
<g>
	<path d="M427.8,661.7c-61.1,0-122.3,0-183.4,0c-2.7-0.3-5.5-0.7-8.2-1c-18.4-2.1-37-3-55.2-6.5c-48.8-9.3-87-34.7-111.9-78.3
		c-15.6-27.3-21.1-57.4-23.7-88.2c-0.9-10.3-1.6-20.6-2.4-30.9c0-69.1,0-138.2,0-207.3c0.3-2.9,0.7-5.9,1-8.8
		c2.1-18.2,3.1-36.6,6.4-54.6c7.7-42.6,28.7-77.5,64.1-103c30.3-21.9,65.1-30.7,101.8-32.4c82.4-3.8,164.9-3.4,247.3-0.9
		c20.4,0.6,41.1,2.8,61.1,7.1c45.8,9.8,82.3,33.8,105.5,75.6c15.3,27.6,22.5,57.6,23.9,88.8c3.8,82.6,3.4,165.3,0.9,247.9
		c-0.6,20-2.6,40.4-7.1,59.9c-15.1,65.6-55.6,107.5-121.4,123.8c-24.9,6.2-50.5,7.2-76.1,7.8C442.9,660.8,435.3,661.3,427.8,661.7z
		 M600.3,345.7c0.3,0,0.5,0,0.8,0c0-22.6,0.7-45.2-0.2-67.7c-1.1-27.1-1.7-54.4-5.8-81.1c-6.8-43.4-32.1-72.5-75.2-83.7
		c-17.5-4.5-35.7-7.7-53.6-8.5c-42.3-1.7-84.6-1.8-126.9-2.1c-30.6-0.2-61.1,0.2-91.7,0.7c-22.4,0.4-44.7,1.4-66.5,7.1
		c-35.9,9.4-60.7,30.6-72.5,66.3c-8.9,27.1-11.1,55.2-11.3,83.3c-0.5,64.7-0.7,129.4,0,194.1c0.2,19.5,2.1,39.2,5.9,58.3
		c9.6,47.8,38.3,78.2,87.1,86.8c20.2,3.6,40.8,5.5,61.3,5.9c57.9,1,115.8,1.4,173.8,0.7c26.7-0.3,53.6-1.8,79.9-5.7
		c46.9-6.8,78.4-36.5,88.2-81.9c3.8-17.8,6-36.3,6.5-54.6C601,424.4,600.3,385.1,600.3,345.7z"/>
	<path d="M349.8,197.4c86.9-0.2,157.1,69.8,157.5,157c0.4,87-70.3,157.7-157.5,157.6c-87-0.1-157.2-70.3-157.2-157.3
		C192.6,267.8,262.7,197.6,349.8,197.4z M452,355.1c0.1-56.6-45-102.1-101.6-102.4c-56.5-0.3-102.3,45-102.6,101.4
		c-0.2,56.9,45.2,102.6,101.9,102.7C406.4,456.9,451.9,411.6,452,355.1z"/>
	<path d="M513.9,154.5c20.3,0.1,36.4,16.3,36.4,36.6c0,20.5-16.4,36.9-36.9,36.8c-20.4-0.1-36.7-16.8-36.5-37.3
		C477.1,170.4,493.6,154.4,513.9,154.5z"/>
</g>
</svg>
