<?xml version="1.0" encoding="utf-8"?>
<!-- Generator: Adobe Illustrator 26.2.1, SVG Export Plug-In . SVG Version: 6.00 Build 0)  -->
<svg version="1.1" id="Layer_1" xmlns="http://www.w3.org/2000/svg" xmlns:xlink="http://www.w3.org/1999/xlink" x="0px" y="0px"
	 viewBox="0 0 700 700" style="enable-background:new 0 0 700 700;" xml:space="preserve">
<g>
	<path d="M661.6,661.6c-42.8,0-85.5,0-129.1,0c0-2.8,0-5.1,0-7.5c0-70,0.2-140-0.3-210c-0.1-14.5-1.5-29.2-4.3-43.5
		c-7.9-39.8-34-55.4-73.3-51.2c-36.5,3.9-56.8,23.8-63,61.5c-2.5,15.3-3.6,31-3.7,46.6c-0.4,65.3-0.2,130.7-0.2,196
		c0,2.4,0,4.8,0,7.6c-43.1,0-85.7,0-128.7,0c0-138.4,0-276.7,0-415.4c41,0,81.9,0,123.6,0c0,18.6,0,37.3,0,57.6
		c1.9-2.2,2.8-2.9,3.3-3.8c21.8-36.2,54.7-56,95.4-62.4c31.6-5,63.2-2.4,93.6,8.5c39.7,14.2,62.6,43.8,74.5,83.1
		c6.5,21.5,9.4,43.5,10.9,65.8c0.2,3.4,0.8,6.7,1.2,10.1C661.6,490.4,661.6,576,661.6,661.6z"/>
	<path d="M122.3,38.4c5.6,1.6,11.4,2.8,16.8,4.8c34.5,12.8,54.5,48.5,47.5,84.7c-6.8,35.1-38.9,61.4-74.1,60.9
		c-36.6-0.6-67.6-27.6-73.2-63.9C33,84.2,60.1,46.6,100.6,39.5c1.2-0.2,2.3-0.7,3.4-1.1C110.2,38.4,116.2,38.4,122.3,38.4z"/>
	<path d="M177.6,245.7c0,138.9,0,277,0,415.6c-43,0-85.7,0-128.6,0c0-138.6,0-277,0-415.6C91.9,245.7,134.5,245.7,177.6,245.7z"/>
</g>
</svg>
