<?xml version="1.0" encoding="utf-8"?>
<!-- Generator: Adobe Illustrator 26.2.1, SVG Export Plug-In . SVG Version: 6.00 Build 0)  -->
<svg version="1.1" id="Layer_1" xmlns="http://www.w3.org/2000/svg" xmlns:xlink="http://www.w3.org/1999/xlink" x="0px" y="0px"
	 viewBox="0 0 700 700" style="enable-background:new 0 0 700 700;" xml:space="preserve">
<g>
	<path d="M176.7,518.8c-4.9-0.4-8-0.8-11.2-0.8c-40.2,0-80.3,0-122.4,0c0,9.8,0,18.5,0,27.1c-0.1,17.8-7.5,27.2-21,27
		C8.7,572,1.8,562.7,1.8,544.5c0-11.2,0-22.4,0-33.6c0-30.5,3.8-34.2,34.8-34.2c41.1,0,82.3,0,123.4,0c5,0,10.1,0,15.4,0
		c0.5-4.7,0.9-7.9,1.3-11.1c2-15.1,8.6-21.4,23.8-21.6c19.6-0.3,39.3-0.2,58.9-0.4c0.8,0,1.6-0.7,3.3-1.4c0-27.8,0-56.1,0-85.4
		c-16-4.4-42.7,5-41.5-24c1.1-26.4,25.8-15.7,40.7-19.7c3-18.2,4.7-36.4,9-53.8c24.8-100.2,116-166.9,221.8-162.9
		c98.5,3.7,185.2,80.4,201.9,178.9c1.8,11,3,22.2,3,33.4c0.2,78.5,0.1,156.9,0.1,235.4c0,22.4-5.8,28.3-28,28.3
		c-154.2,0-308.5,0-462.7,0c-24.5,0-30.3-6-30.4-30.7C176.7,534.6,176.7,527.6,176.7,518.8z M608.8,313.8
		c0.4-71.5-55.8-129.2-126.4-129.6c-72.3-0.4-130.1,55.7-130.7,126.9c-0.6,71.1,57.1,129.7,128,130
		C550.7,441.4,608.4,384.4,608.8,313.8z"/>
	<path d="M480.9,224.3c50.1,0.2,88.3,38.9,87.9,89.3c-0.4,48.9-39.7,87.8-88.8,87.6c-49.2-0.2-88.7-40.4-88.2-89.8
		C392.3,262.3,431.5,224.1,480.9,224.3z"/>
</g>
</svg>
