<?xml version="1.0" encoding="UTF-8"?>
<svg id="Layer_1" xmlns="http://www.w3.org/2000/svg" version="1.1" viewBox="0 0 384 384">
  <!-- Generator: Adobe Illustrator 29.7.1, SVG Export Plug-In . SVG Version: 2.1.1 Build 8)  -->
  <path d="M259.8,22c0,43.3,34.3,81,77.4,85s6.7-.9,9,1v54.1c-22.1.8-43.8-5-63.5-14.5l-22.8-14.1c.1,33.1-.2,66.2,0,99.3s1.2,22.9,0,34.5c-4.9,46.8-42.3,86.2-88.8,93.1-4.4.7-9.1.5-13.4,1.5-2.2,0-4.4.1-6.6,0-59.2-3.2-105-49.1-102.9-109.2,2.2-63.5,59.7-109.3,122.2-99.9v55.8c-12-2.6-22.5-3.1-34.2,1.3-61.9,23.4-25.4,118.6,37.3,93.1s31-48.9,31.5-80.8c.9-66.7-.8-133.5,0-200.2h55.1Z"/>
</svg>