<?xml version="1.0" encoding="utf-8"?>
<!-- Generator: Adobe Illustrator 26.2.1, SVG Export Plug-In . SVG Version: 6.00 Build 0)  -->
<svg version="1.1" id="Layer_1" xmlns="http://www.w3.org/2000/svg" xmlns:xlink="http://www.w3.org/1999/xlink" x="0px" y="0px"
	 viewBox="0 0 700 700" style="enable-background:new 0 0 700 700;" xml:space="preserve">
<g>
	<path d="M2.8,576.2c76.8,5.1,145.8-13.1,208.5-60.6c-65.8-6.1-109.1-39.1-133.6-100.3c21.5,0,41.7,0,61.8,0c0.2-1,0.4-2,0.6-3
		c-32.6-8.2-59.6-25.1-80.2-51.3c-20.5-26.1-31.1-55.8-31.3-90.5c20.2,9.6,40,16.6,63.4,16.8c-36.3-29.2-58.5-64.5-62.5-109.9
		c-2.3-25.7,6.3-60,20.2-80.6c77.2,90.1,174,141.2,291.8,148.6c0-16-1.3-30.8,0.2-45.3c6.3-58.5,37.1-100.1,91.8-120.9
		c54.7-20.8,105.3-9.6,149,29.5c5.4,4.8,9.9,6.6,16.4,4.1c24.1-9.3,48.2-18.5,72.3-27.7c2.2-0.9,4.4-2.1,8.6-4.1
		c-11.3,33.9-31.2,58.4-59.1,76.8c0.4,1,0.9,1.9,1.3,2.9c24.9-6.9,49.8-13.8,75.3-20.9c-1.7,2.6-3.4,5.5-5.4,8.3
		c-16.4,22.9-35.9,42.7-58.3,59.6c-4.9,3.7-6.5,7.3-6.3,13.4c5.1,160.1-90,318-234.3,381.3C262.8,659.6,134.3,652,10.4,581.1
		C7.8,579.7,5.3,577.9,2.8,576.2z"/>
</g>
</svg>
